<?xml version="1.0" encoding="UTF-8" ?>
<!DOCTYPE svg PUBLIC "-//W3C//DTD SVG 1.1//EN" "http://www.w3.org/Graphics/SVG/1.1/DTD/svg11.dtd">
<svg width="942pt" height="239pt" viewBox="0 0 942 239" version="1.1" xmlns="http://www.w3.org/2000/svg">
<g id="#f9f9f9ff">
</g>
<g id="#3f3f4bff">
<path fill="#3f3f4b" opacity="1.00" d=" M 237.01 80.36 C 242.98 80.89 249.26 79.79 255.05 80.89 C 265.48 101.38 274.84 122.45 284.79 143.18 C 284.24 146.83 281.66 150.06 280.51 153.63 C 278.45 153.62 276.39 153.62 274.34 153.62 C 263.98 131.64 253.60 109.67 243.18 87.72 C 241.98 84.64 239.60 82.32 237.01 80.36 Z" />
<path fill="#3f3f4b" opacity="1.00" d=" M 298.92 80.29 C 308.65 80.61 318.40 80.52 328.14 80.35 C 324.24 81.94 320.97 85.49 321.07 89.91 C 320.98 107.95 321.00 126.00 321.06 144.04 C 320.90 148.52 324.19 152.07 328.05 153.82 C 318.65 153.49 309.23 153.57 299.83 153.77 C 302.97 151.35 306.52 148.45 306.20 144.02 C 306.35 126.01 306.32 107.98 306.21 89.97 C 306.31 85.39 302.81 82.05 298.92 80.29 Z" />
<path fill="#3f3f4b" opacity="1.00" d=" M 339.85 80.33 C 348.36 81.32 360.04 77.55 365.30 86.63 C 375.07 105.63 384.37 124.89 394.12 143.91 C 396.50 148.50 400.86 151.47 405.36 153.72 C 397.50 152.88 386.88 156.26 381.78 148.23 C 372.20 129.44 362.90 110.49 353.38 91.67 C 350.60 86.25 345.71 82.05 339.85 80.33 Z" />
<path fill="#3f3f4b" opacity="1.00" d=" M 420.92 88.92 C 425.92 83.44 433.29 81.12 440.42 80.05 C 427.57 88.24 426.14 105.16 426.29 118.99 C 426.57 131.60 428.54 147.09 440.47 154.13 C 432.87 153.56 425.58 150.17 420.21 144.78 C 413.39 137.68 411.07 127.52 410.84 117.95 C 410.75 107.58 413.17 96.35 420.92 88.92 Z" />
<path fill="#3f3f4b" opacity="1.00" d=" M 456.41 79.99 C 469.90 80.90 481.93 90.87 484.78 104.17 C 487.66 116.42 486.92 130.17 480.04 141.01 C 475.16 148.76 466.18 153.39 457.16 154.01 C 469.67 145.99 470.78 129.42 471.02 115.99 C 470.57 103.08 468.96 87.00 456.41 79.99 Z" />
<path fill="#3f3f4b" opacity="1.00" d=" M 495.92 80.30 C 505.93 80.59 515.96 80.57 525.97 80.30 C 521.06 81.31 517.70 86.04 517.79 90.97 C 517.74 111.85 517.86 132.74 517.73 153.63 C 510.48 153.72 503.23 153.41 495.99 153.84 C 500.25 151.95 503.55 147.86 503.33 143.02 C 503.25 125.35 503.53 107.65 503.18 89.98 C 503.26 85.39 499.89 81.99 495.92 80.30 Z" />
<path fill="#3f3f4b" opacity="1.00" d=" M 568.95 80.29 C 578.68 80.66 588.44 80.42 598.18 80.42 C 594.32 82.02 590.96 85.49 591.17 89.93 C 591.18 108.25 590.98 126.58 591.27 144.90 C 591.16 149.15 594.73 151.93 598.07 153.83 C 588.66 153.46 579.23 153.60 569.82 153.75 C 573.23 151.58 576.49 148.41 576.28 144.02 C 576.43 126.01 576.39 107.98 576.30 89.98 C 576.36 85.39 572.87 82.02 568.95 80.29 Z" />
<path fill="#3f3f4b" opacity="1.00" d=" M 677.01 80.35 C 686.64 80.51 696.28 80.61 705.90 80.29 C 701.81 81.78 698.33 85.44 698.43 90.00 C 698.33 107.69 698.43 125.38 698.39 143.07 C 698.05 147.92 701.36 152.57 706.06 153.83 C 696.29 153.41 686.50 153.69 676.72 153.67 C 680.54 152.00 683.82 148.50 683.55 144.07 C 683.59 125.78 683.70 107.48 683.50 89.19 C 683.69 85.05 679.95 82.54 677.01 80.35 Z" />
<path fill="#3f3f4b" opacity="1.00" d=" M 618.56 115.45 C 609.59 108.55 608.22 92.82 618.08 86.11 C 616.74 90.88 616.72 96.64 621.29 99.73 C 631.62 107.27 644.86 109.35 655.38 116.61 C 662.31 120.61 667.82 128.32 666.60 136.62 C 666.17 143.65 660.22 148.27 655.19 152.35 C 658.11 148.14 658.60 142.25 654.11 138.88 C 642.61 130.58 629.11 125.11 618.56 115.45 Z" />
</g>
<g id="#aaabb0ff">
<path fill="#aaabb0" opacity="1.00" d=" M 394.28 80.38 C 397.95 79.31 402.22 80.35 404.65 83.39 C 409.46 87.92 407.25 96.99 401.09 99.12 C 396.30 101.20 390.06 98.73 388.11 93.86 C 385.73 88.78 388.84 81.87 394.28 80.38 Z" />
<path fill="#aaabb0" opacity="1.00" d=" M 652.39 80.54 C 659.21 77.78 667.30 84.33 665.55 91.60 C 664.89 99.07 654.80 102.55 649.43 97.55 C 643.41 93.08 645.31 82.77 652.39 80.54 Z" />
<path fill="#aaabb0" opacity="1.00" d=" M 347.27 134.23 C 353.66 131.62 361.03 137.18 360.44 144.01 C 360.57 151.92 349.56 156.86 343.97 151.04 C 338.37 146.45 340.04 136.14 347.27 134.23 Z" />
</g>
<g id="#413f4bff">
<path fill="#413f4b" opacity="1.00" d=" M 611.95 136.76 C 614.85 143.63 618.35 150.78 625.47 154.13 C 620.90 153.68 616.43 151.96 611.80 152.66 C 611.81 147.36 611.64 142.05 611.95 136.76 Z" />
</g>
<g id="#41414bff">
<path fill="#41414b" opacity="1.00" d=" M 540.63 153.63 C 547.85 151.59 553.14 145.83 555.53 138.83 C 555.59 143.75 555.59 148.66 555.54 153.57 C 550.56 153.67 545.59 153.68 540.63 153.63 Z" />
</g>
<g id="#414249ff">
<path fill="#414249" opacity="1.00" d=" M 236.99 153.74 C 240.97 151.81 243.11 147.89 244.08 143.74 C 244.67 148.37 247.35 152.53 252.04 153.79 C 247.03 153.53 242.00 153.60 236.99 153.74 Z" />
</g>
</svg>
