<?xml version="1.0" encoding="utf-8" ?>
<svg baseProfile="tiny" height="100%" version="1.2" width="100%" xmlns="http://www.w3.org/2000/svg" xmlns:ev="http://www.w3.org/2001/xml-events" xmlns:xlink="http://www.w3.org/1999/xlink"><defs /><path d="M143,178 142,179 142,181 145,181 145,179 144,178" fill="black" /><path d="M94,128 94,131 96,131 97,130 97,129 96,128" fill="black" /><path d="M149,118 148,119 148,120 147,121 146,121 149,124 150,124 150,123 151,122 152,122 152,121 151,121 150,120 150,119" fill="black" /><path d="M691,95 690,96 690,97 689,98 689,101 688,102 688,103 687,104 687,106 686,107 686,108 685,109 685,111 684,112 684,114 683,115 683,117 682,118 682,119 681,120 681,122 680,123 680,125 679,126 679,128 678,129 678,130 677,131 677,133 676,134 676,136 675,137 675,139 674,140 674,141 673,142 673,144 672,145 672,148 671,149 671,151 669,153 669,155 668,156 668,159 667,160 667,161 666,162 667,163 687,163 687,162 688,161 688,159 689,158 689,156 690,155 690,153 691,152 691,151 692,150 692,148 693,147 693,145 694,144 694,142 695,141 695,139 696,138 696,137 697,136 697,134 698,133 698,132 699,131 699,129 700,128 700,126 701,125 701,123 702,122 702,120 703,119 703,117 704,116 704,115 705,114 705,112 706,111 706,110 707,109 707,107 708,106 708,104 709,103 709,101 710,100 710,99 711,98 711,95" fill="black" /><path d="M613,95 612,96 610,96 609,97 607,97 606,98 605,98 602,101 601,101 600,102 600,103 597,106 597,107 596,108 596,109 595,110 595,111 594,112 594,114 593,115 593,116 592,117 592,119 591,120 591,124 590,125 590,128 591,129 591,131 592,132 592,133 594,135 595,135 596,136 599,136 600,137 642,137 643,138 643,139 642,140 642,141 641,142 641,145 639,147 604,147 603,146 603,145 604,144 604,143 603,142 584,142 583,143 583,144 582,145 582,147 581,148 581,157 582,158 582,159 583,159 584,160 584,161 585,161 586,162 587,162 588,163 643,163 644,162 646,162 647,161 648,161 649,160 650,160 652,158 653,158 657,154 657,153 659,151 659,150 660,149 660,148 661,147 661,145 662,144 662,142 663,141 663,139 664,138 664,137 665,136 665,128 664,127 664,126 663,125 663,124 662,123 661,123 660,122 658,122 657,121 614,121 613,120 613,118 614,117 614,116 613,115 612,115 610,113 609,113 607,111 608,110 651,110 652,111 652,116 671,116 673,114 673,112 674,111 674,109 675,108 675,103 674,102 674,100 673,99 673,98 672,98 670,96 668,96 667,95" fill="black" /><path d="M568,95 568,98 566,100 566,103 565,104 565,105 564,106 564,108 563,109 563,111 562,112 562,113 561,114 561,116 560,117 560,119 559,120 559,121 558,122 558,124 557,125 557,127 556,128 556,130 555,131 555,133 554,134 554,135 553,136 553,138 552,139 552,141 551,142 551,143 550,144 550,146 549,147 549,149 548,150 548,152 547,153 547,155 546,156 546,157 545,158 545,160 544,161 544,163 564,163 565,162 565,161 566,160 566,158 567,157 567,155 568,154 568,152 569,151 569,150 570,149 570,147 571,146 571,145 572,144 572,142 573,141 573,139 574,138 574,136 575,135 575,133 576,132 576,131 577,130 577,128 578,127 578,125 579,124 579,123 580,122 580,120 581,119 581,117 582,116 582,114 583,113 583,111 584,110 584,109 585,108 585,106 586,105 586,103 587,102 587,101 588,100 588,98 589,97 589,95" fill="black" /><path d="M498,95 497,96 497,99 496,100 496,101 495,102 495,103 494,104 494,106 493,107 493,109 492,110 492,112 491,113 491,114 490,115 490,117 489,118 489,120 488,121 488,123 487,124 487,125 486,126 486,128 485,129 485,131 484,132 484,135 483,136 483,137 482,138 482,139 481,140 481,143 480,144 480,146 478,148 478,151 477,152 477,153 476,154 476,156 475,157 475,159 474,160 474,161 473,162 474,163 536,163 537,162 537,160 538,159 538,157 539,156 539,155 540,154 540,152 541,151 541,149 542,148 541,147 501,147 500,146 501,145 501,143 502,142 502,140 503,139 503,137 504,136 504,135 505,134 505,132 506,131 506,129 507,128 507,127 508,126 508,124 509,123 509,121 510,120 510,118 511,117 511,115 512,114 512,113 513,112 513,110 514,109 514,107 515,106 515,104 516,103 516,102 517,101 517,99 518,98 518,95" fill="black" /><path d="M419,95 418,96 416,96 415,97 413,97 410,100 409,100 404,105 404,106 403,107 403,108 402,109 402,110 401,111 401,112 400,113 400,115 399,116 399,119 398,120 398,121 397,122 397,123 396,124 396,127 395,128 395,129 394,130 394,131 393,132 393,135 392,136 392,137 391,138 391,140 390,141 390,142 389,143 389,145 388,146 388,148 387,149 387,155 388,156 388,158 392,162 394,162 395,163 449,163 450,162 452,162 453,161 455,161 457,159 458,159 464,153 464,152 466,150 466,149 467,148 467,146 468,145 468,144 469,143 469,141 470,140 470,138 471,137 471,135 472,134 472,133 473,132 473,130 474,129 474,127 475,126 475,124 476,123 476,122 477,121 477,118 478,117 478,116 479,115 479,113 480,112 480,110 481,109 481,101 480,100 480,99 479,99 478,98 478,97 477,97 476,96 475,96 474,95" fill="black" /><path d="M325,95 325,97 326,98 326,99 327,100 327,101 328,102 328,103 329,104 329,105 330,106 330,107 331,108 331,110 333,112 333,114 334,115 334,116 336,118 336,119 337,120 337,122 338,123 338,124 339,125 339,126 340,127 340,129 335,134 334,134 329,139 328,139 323,144 322,144 318,148 317,148 311,154 310,154 306,158 305,158 301,162 300,162 300,163 321,163 326,158 327,158 332,153 333,153 338,148 339,148 344,143 345,143 346,142 348,144 348,145 349,146 349,147 350,148 350,149 351,150 351,151 352,152 352,153 353,154 353,155 354,156 354,157 355,158 355,159 356,160 356,161 357,162 357,163 378,163 378,162 377,161 377,160 376,159 376,158 375,157 375,156 374,155 374,154 373,153 373,152 372,151 372,150 371,149 371,148 370,147 370,146 369,145 369,144 368,143 368,142 367,141 367,139 366,138 366,137 365,136 365,135 364,134 364,133 363,132 363,131 362,130 362,129 366,125 367,125 372,120 373,120 378,115 379,115 384,110 385,110 389,106 390,106 395,101 396,101 402,95 382,95 380,97 379,97 375,101 374,101 370,105 369,105 364,110 363,110 357,116 356,116 354,114 354,113 353,112 353,110 351,108 351,106 350,105 350,104 349,103 349,102 348,101 348,100 347,99 347,98 346,97 346,96 345,95" fill="black" /><path d="M233,95 232,96 232,98 231,99 231,100 230,101 230,103 229,104 229,106 228,107 228,109 227,110 227,111 226,112 226,114 225,115 225,117 224,118 224,120 223,121 223,122 222,123 222,125 221,126 221,128 220,129 220,131 219,132 219,133 218,134 218,136 217,137 217,139 216,140 216,143 214,145 214,147 213,148 213,150 212,151 212,153 211,154 211,155 210,156 210,159 209,160 209,161 208,162 208,164 207,165 207,166 206,167 206,169 205,170 205,172 204,173 204,175 203,176 203,177 202,178 202,180 201,181 201,184 221,184 221,183 222,182 222,181 223,180 223,178 224,177 224,175 225,174 225,172 226,171 226,170 227,169 227,167 228,166 228,164 229,163 229,161 230,160 230,159 231,158 231,156 232,155 232,153 233,152 233,151 234,150 234,148 235,147 235,145 236,144 236,142 237,141 237,140 238,139 238,137 239,136 239,134 241,132 242,133 242,135 243,136 243,139 244,140 244,144 245,145 245,147 267,147 270,144 270,143 281,132 282,133 282,135 281,136 281,137 280,138 280,140 279,141 279,142 278,143 278,145 277,146 277,148 276,149 276,151 275,152 275,153 274,154 274,156 273,157 273,159 272,160 272,163 292,163 293,162 293,160 294,159 294,157 295,156 295,154 296,153 296,151 297,150 297,149 298,148 298,146 299,145 299,143 300,142 300,141 301,140 301,138 302,137 302,135 303,134 303,132 304,131 304,129 305,128 305,127 306,126 306,124 307,123 307,121 308,120 308,118 309,117 309,116 310,115 310,113 311,112 311,110 312,109 312,107 313,106 313,104 314,103 314,102 315,101 315,99 316,98 316,95 296,95 275,116 275,117 274,118 273,118 273,119 263,129 262,129 261,128 261,124 260,123 260,120 259,119 259,116 258,115 258,112 257,111 257,107 256,106 256,104 255,103 255,99 254,98 254,96 253,95" fill="black" /><path d="M145,88 144,89 142,89 141,90 141,91 140,92 140,96 141,97 141,98 142,99 143,99 144,100 147,100 148,99 149,99 151,97 151,91 149,89 148,89 147,88" fill="black" /><path d="M101,81 98,84 99,85 100,85 101,86 101,87 102,87 102,86 103,85 104,85 104,84 102,82 102,81" fill="black" /><path d="M120,76 119,77 119,78 118,79 118,81 117,82 117,84 116,85 116,88 115,89 115,91 114,92 114,95 113,96 113,99 112,100 112,103 111,104 111,107 110,108 110,111 109,112 109,117 108,118 108,124 107,125 107,132 106,133 106,134 104,136 104,137 102,139 102,140 101,141 101,142 100,143 100,144 99,145 99,147 98,148 98,151 97,152 97,159 98,160 98,163 99,164 99,165 100,166 100,168 102,170 102,171 103,172 104,172 105,171 105,166 106,165 106,164 109,161 110,162 110,164 111,165 111,167 112,168 112,170 113,171 113,172 114,173 114,174 115,175 115,182 116,183 116,191 117,192 117,195 118,196 118,199 119,200 119,202 121,202 122,201 122,199 123,198 123,194 124,193 124,184 125,183 125,177 126,176 126,174 127,173 127,172 128,171 128,169 129,168 129,167 130,166 130,163 132,161 134,163 134,164 135,165 135,167 136,168 136,172 138,172 138,171 140,169 140,168 141,167 141,165 142,164 142,161 143,160 143,151 142,150 142,147 141,146 141,144 140,143 140,142 138,140 138,139 137,138 137,137 135,135 135,134 133,132 133,124 132,123 132,117 131,116 131,113 130,112 130,107 129,106 129,104 128,103 128,99 127,98 127,95 126,94 126,92 125,91 125,88 124,87 124,85 123,84 123,82 122,81 122,78" fill="black" /></svg>